<svg width="540" height="45" viewBox="0 0 540 45" fill="none" xmlns="http://www.w3.org/2000/svg">
<path d="M33.642 41.2019V4.31995H24.3V18.1979H9.342V4.31995H0V41.2019H9.342V26.7839H24.3V41.2019H33.642Z" fill="white"/>
<path d="M68.256 12.9059V4.31995H39.96V41.2019H68.256V32.6159H49.302V26.5139H64.53V19.0079H49.302V12.9059H68.256Z" fill="white"/>
<path d="M191.862 12.9059V4.31995H163.512V41.2019H191.862V32.6159H172.908V26.5139H188.082V19.0079H172.908V12.9059H191.862Z" fill="white"/>
<path d="M229.878 4.31995H197.046V12.9059H208.818V41.2019H218.16V12.9059H229.878V4.31995Z" fill="white"/>
<path d="M104.598 7.66796C101.466 3.77996 95.3644 3.23996 90.3965 3.23996C85.4285 3.23996 79.3265 3.72596 76.1945 7.61396C72.5225 11.502 72.5225 19.062 72.5225 22.7339C72.5225 28.2959 72.9545 34.4519 76.1945 37.8539C79.3805 41.7959 85.8605 42.2279 90.3965 42.2279C95.3644 42.2279 101.466 41.7419 104.598 37.8539C107.838 34.4519 108.27 28.2959 108.27 22.7339C108.324 19.116 108.324 11.502 104.598 7.66796ZM99.1445 33.2639L98.9284 33.3179C96.0125 33.7499 84.8345 33.7499 81.9185 33.3179L81.7025 33.2639V12.258L81.9185 12.204C84.9425 11.772 95.9045 11.772 98.9284 12.204L99.1445 12.258V33.2639Z" fill="white"/>
<path d="M265.572 27.8639C267.462 25.7579 268.38 22.3019 268.38 17.7119C268.38 13.1219 267.408 9.66594 265.572 7.55994C263.682 5.39995 260.658 4.31995 256.5 4.31995H235.278V41.1479H244.62V31.0499H256.5C260.658 31.0499 263.682 29.9699 265.572 27.8639ZM244.62 12.9059C247.158 12.6359 256.392 12.6359 258.714 12.9059V22.4639C256.176 22.7339 247.104 22.6799 244.62 22.4639V12.9059Z" fill="white"/>
<path d="M143.748 4.31995L135.864 23.5439H135.648L127.764 4.31995H114.318V41.2019H123.66V20.0879L123.498 15.0119H123.822L131.058 32.6159H140.454L147.69 15.0119H147.96L147.798 20.0879V41.2019H157.194V4.31995H143.748Z" fill="white"/>
<path d="M296.838 4.31995L282.96 27.9719H282.798L283.122 22.4639V4.31995H273.726V41.2019H284.796L298.674 17.4959H298.89L298.566 23.0579V41.2019H307.908V4.31995H296.838Z" fill="white"/>
<path d="M325.08 4.31995C321.084 4.31995 318.168 5.34595 316.386 7.39794C314.604 9.39594 313.74 12.5819 313.686 16.9019V17.0099C313.686 17.0639 313.686 17.0639 313.686 17.1179C313.686 17.3879 313.686 17.6039 313.74 17.8739C313.848 21.9239 314.766 24.8939 316.44 26.8379C317.358 27.9179 318.654 28.7279 320.22 29.2139L320.544 29.3219L320.382 29.5919L313.686 41.1479H323.784L330.21 29.9159H337.554V41.1479H346.896V4.31995H325.08ZM337.446 21.4379C334.854 21.7079 325.512 21.6539 322.92 21.4379V12.8519C325.512 12.5819 335.016 12.5819 337.446 12.8519V21.4379Z" fill="white"/>
<path d="M366.822 14.58C365.796 13.77 365.256 12.528 365.256 10.8C365.256 9.07198 365.796 7.82998 366.822 7.01998C367.848 6.26398 369.522 5.83198 371.79 5.83198V4.31998H373.95V5.88598C376.218 5.88598 377.892 6.26398 378.918 7.07398C379.944 7.82998 380.43 9.12598 380.43 10.854C380.43 12.582 379.89 13.878 378.864 14.634C377.838 15.39 376.164 15.822 373.896 15.822V17.226H371.736V15.822C369.468 15.768 367.848 15.336 366.822 14.58ZM371.736 7.82998C370.224 7.82998 369.144 8.09998 368.442 8.53198C367.74 9.01798 367.416 9.77398 367.416 10.8C367.416 11.826 367.74 12.582 368.442 13.068C369.144 13.554 370.224 13.77 371.736 13.77V7.82998ZM373.896 7.82998V13.77C375.408 13.77 376.488 13.5 377.19 13.068C377.892 12.636 378.216 11.826 378.216 10.8C378.216 9.77398 377.892 9.01798 377.19 8.53198C376.488 8.04598 375.408 7.82998 373.896 7.82998Z" fill="white"/>
<path d="M394.848 17.01H384.48V4.48203H394.848V6.48002H386.64V9.77402H393.93V11.664H386.64V14.958H394.848V17.01Z" fill="white"/>
<path d="M400.247 19.98H398.087V14.958H399.761C400.139 14.688 400.409 14.094 400.679 13.176C400.895 12.258 401.057 10.476 401.219 7.93802L401.381 4.48203H410.885V14.958H412.937V19.98H410.777V17.01H400.301V19.98H400.247ZM402.137 14.958H408.671V6.48002H403.379L403.325 8.04602C403.163 11.394 402.785 13.716 402.137 14.958Z" fill="white"/>
<path d="M427.14 17.01H416.772V4.48203H427.14V6.48002H418.932V9.77402H426.222V11.664H418.932V14.958H427.14V17.01Z" fill="white"/>
<path d="M431.298 17.01V4.48203H437.616C439.128 4.48203 440.262 4.80603 440.91 5.45402C441.612 6.10202 441.936 7.12802 441.936 8.58602C441.936 10.044 441.612 11.07 440.91 11.718C440.208 12.366 439.128 12.69 437.616 12.69H433.458V17.01H431.298V17.01ZM433.458 10.638H437.454C438.264 10.638 438.858 10.476 439.236 10.152C439.614 9.82802 439.776 9.28802 439.776 8.58602C439.776 7.88402 439.614 7.34402 439.236 7.02002C438.858 6.69602 438.264 6.53402 437.454 6.53402H433.458V10.638Z" fill="white"/>
<path d="M443.664 17.01L449.388 4.48203H451.872L457.596 17.01H455.274L454.14 14.526H447.12L445.986 17.01H443.664ZM450.576 6.75002L447.984 12.474H453.168L450.576 6.75002Z" fill="white"/>
<path d="M460.458 17.0099V14.8499H461.106C461.43 14.8499 461.7 14.7419 461.862 14.4719C462.024 14.2019 462.24 13.5539 462.402 12.5279C462.564 11.5019 462.726 9.93595 462.78 7.93795L462.942 4.53595H472.5V17.0639H470.34V6.47995H464.993L464.94 8.09995C464.832 10.4759 464.67 12.3119 464.4 13.6079C464.13 14.8499 463.806 15.7679 463.32 16.2539C462.834 16.7939 462.186 17.0099 461.322 17.0099H460.458Z" fill="white"/>
<path d="M477.036 17.01V4.48203H479.196V9.01802H483.354C484.866 9.01802 486 9.34202 486.702 9.99002C487.404 10.638 487.728 11.664 487.728 13.068C487.728 14.472 487.404 15.498 486.702 16.146C486 16.794 484.92 17.118 483.408 17.118H477.036V17.01ZM483.192 11.016H479.196V14.958H483.192C484.002 14.958 484.596 14.796 484.974 14.472C485.352 14.148 485.514 13.662 485.514 12.96C485.514 12.258 485.352 11.772 484.974 11.448C484.596 11.178 484.002 11.016 483.192 11.016Z" fill="white"/>
<path d="M491.616 17.01V4.48203H493.776V9.72002H501.876V4.48203H504.036V17.01H501.876V11.772H493.776V17.01H491.616Z" fill="white"/>
<path d="M508.517 4.48203H510.677V9.01802H514.835C516.347 9.01802 517.481 9.34202 518.183 9.99002C518.885 10.638 519.209 11.664 519.209 13.068C519.209 14.472 518.885 15.498 518.183 16.146C517.481 16.794 516.401 17.118 514.889 17.118H508.571V4.48203H508.517ZM514.727 11.016H510.731V14.958H514.727C515.537 14.958 516.131 14.796 516.509 14.472C516.887 14.148 517.049 13.662 517.049 12.96C517.049 12.258 516.887 11.772 516.509 11.448C516.131 11.178 515.537 11.016 514.727 11.016ZM521.045 17.01V4.48203H523.205V17.01H521.045Z" fill="white"/>
<path d="M529.956 17.01H527.796V4.482H529.956V13.878L537.84 4.482H540V17.01H537.84V7.614L529.956 17.01ZM529.74 0H531.63C531.63 0.54 531.846 1.026 532.224 1.404C532.602 1.782 533.196 1.944 533.898 1.944C534.654 1.944 535.248 1.782 535.626 1.404C536.004 1.026 536.166 0.594 536.166 0H538.056C538.056 1.08 537.732 1.998 537.03 2.646C536.328 3.294 535.302 3.618 533.844 3.618C532.494 3.618 531.414 3.294 530.712 2.646C530.064 1.944 529.74 1.08 529.74 0Z" fill="white"/>
<path d="M367.2 44.1721H365.04V39.1501H366.714C367.092 38.8801 367.362 38.2861 367.632 37.3681C367.848 36.4501 368.01 34.6681 368.172 32.1301L368.334 28.6741H377.838V39.1501H379.89V44.1721H377.73V41.2021H367.2V44.1721ZM369.036 39.1501H375.57V30.7261H370.278L370.224 32.2921C370.062 35.5861 369.684 37.9081 369.036 39.1501Z" fill="white"/>
<path d="M394.038 41.2021H383.67V28.6741H394.038V30.7261H385.83V34.0201H393.12V35.9101H385.83V39.2041H394.038V41.2021Z" fill="white"/>
<path d="M398.196 41.2021V28.6741H405.162C406.566 28.6741 407.592 28.9441 408.186 29.4841C408.834 30.0241 409.158 30.8341 409.158 32.0221C409.158 33.3721 408.726 34.2901 407.916 34.7761C409.05 35.2621 409.59 36.2341 409.59 37.8001C409.59 38.9881 409.266 39.9061 408.618 40.4461C407.97 40.9861 406.944 41.2561 405.594 41.2561H398.196V41.2021ZM400.356 33.8581H405.108C405.864 33.8581 406.35 33.7501 406.674 33.4801C406.998 33.2101 407.106 32.8321 407.106 32.2921C407.106 31.7521 406.944 31.3201 406.62 31.1041C406.296 30.8341 405.81 30.7261 405.108 30.7261H400.302V33.8581H400.356ZM400.356 39.1501H405.594C406.296 39.1501 406.782 39.0421 407.106 38.7721C407.43 38.5021 407.592 38.0701 407.592 37.4761C407.592 36.8821 407.43 36.4501 407.106 36.1801C406.782 35.9101 406.296 35.8021 405.594 35.8021H400.356V39.1501Z" fill="white"/>
<path d="M423.954 41.2021H413.586V28.6741H423.954V30.7261H415.746V34.0201H423.036V35.9101H415.746V39.2041H423.954V41.2021Z" fill="white"/>
<path d="M427.302 41.2021V39.0421H427.95C428.274 39.0421 428.544 38.9341 428.706 38.6641C428.868 38.3941 429.084 37.7461 429.246 36.7201C429.408 35.6941 429.57 34.1281 429.624 32.1301L429.786 28.7281H439.29V41.2561H437.13V30.7261H431.784L431.73 32.2921C431.622 34.6681 431.46 36.5041 431.19 37.8001C430.92 39.0421 430.596 39.9601 430.11 40.4461C429.624 40.9861 428.976 41.2021 428.112 41.2021H427.302V41.2021Z" fill="white"/>
<path d="M444.96 30.0239C445.986 28.9979 447.606 28.5119 449.874 28.5119C452.142 28.5119 453.762 28.9979 454.788 30.0239C455.814 31.0499 456.3 32.6699 456.3 34.9379C456.3 37.2059 455.814 38.8259 454.788 39.8519C453.762 40.8779 452.142 41.3639 449.874 41.3639C447.606 41.3639 445.986 40.8779 444.96 39.8519C443.934 38.8259 443.448 37.2059 443.448 34.9379C443.394 32.6699 443.934 31.0499 444.96 30.0239ZM446.58 31.5899C445.932 32.2919 445.554 33.4259 445.554 34.9379C445.554 36.4499 445.878 37.5839 446.58 38.2859C447.228 38.9879 448.362 39.3119 449.82 39.3119C451.332 39.3119 452.412 38.9879 453.06 38.2859C453.708 37.5839 454.086 36.4499 454.086 34.9379C454.086 33.4259 453.762 32.2919 453.06 31.5899C452.412 30.8879 451.278 30.5639 449.82 30.5639C448.362 30.5639 447.282 30.8879 446.58 31.5899Z" fill="white"/>
<path d="M460.35 41.2021V28.6741H472.5V41.2021H470.34V30.7261H462.51V41.2021H460.35Z" fill="white"/>
<path d="M487.404 41.2021H477.036V28.6741H487.404V30.7261H479.196V34.0201H486.486V35.9101H479.196V39.2041H487.404V41.2021Z" fill="white"/>
<path d="M491.616 41.2021V28.6741H497.88C499.392 28.6741 500.526 28.9981 501.174 29.6461C501.876 30.2941 502.2 31.3201 502.2 32.7781C502.2 34.2361 501.876 35.2621 501.174 35.9101C500.472 36.5581 499.392 36.8821 497.88 36.8821H493.722V41.2021H491.616ZM493.776 34.8301H497.772C498.582 34.8301 499.176 34.6681 499.554 34.3441C499.932 34.0201 500.094 33.4801 500.094 32.7781C500.094 32.0761 499.932 31.5361 499.554 31.2121C499.176 30.8881 498.582 30.7261 497.772 30.7261H493.776V34.8301Z" fill="white"/>
</svg>
