<svg width="128" height="28" viewBox="0 0 128 28" fill="none" xmlns="http://www.w3.org/2000/svg">
<path d="M3.29976 22.6306V25.1511C3.93655 25.1466 4.39968 25.0442 4.68913 24.8438C4.97858 24.6434 5.12554 24.3228 5.12554 23.8864C5.12554 23.4456 4.98304 23.1294 4.69358 22.929C4.40413 22.7331 3.94101 22.6306 3.29976 22.6306ZM2.56499 22.6306C1.9282 22.6351 1.46507 22.7375 1.17562 22.9334C0.88617 23.1338 0.739217 23.45 0.739217 23.8909C0.739217 24.3317 0.88617 24.6479 1.17562 24.8483C1.46507 25.0487 1.9282 25.1511 2.56499 25.1511V22.6306ZM0 23.882C0 23.2051 0.20039 22.7152 0.605624 22.4124C1.01086 22.1096 1.66101 21.9538 2.56499 21.9538V21.3303H3.29976V21.9538C4.19929 21.9538 4.8539 22.1052 5.25913 22.4124C5.66436 22.7152 5.86475 23.2051 5.86475 23.882C5.86475 24.5633 5.65991 25.0531 5.25468 25.3604C4.84944 25.6677 4.19929 25.8191 3.29976 25.8191V26.398H2.56499V25.8191C1.66992 25.8191 1.01531 25.6677 0.610077 25.3604C0.204843 25.0531 0 24.5588 0 23.882H0Z" fill="white"/>
<path d="M11.6324 26.3491H7.56226V21.3928H11.6324V22.0831H8.29702V23.5437H11.2806V24.1938H8.29702V25.6545H11.6324V26.3491Z" fill="white"/>
<path d="M14.448 25.6543H17.2089V22.0873H14.9423L14.9066 22.9156C14.8398 24.2872 14.6884 25.2045 14.448 25.6543ZM13.6999 27.5379H12.9651V25.6543H13.6019C13.7043 25.5919 13.7889 25.494 13.8513 25.3604C13.9136 25.2268 13.9759 24.9551 14.0383 24.5499C14.1006 24.1447 14.1452 23.588 14.1808 22.8844L14.252 21.3882H17.9481V25.6498H18.7853V27.5335H18.0505V26.3445H13.7043V27.5335L13.6999 27.5379Z" fill="white"/>
<path d="M24.4354 26.3491H20.3652V21.3928H24.4354V22.0831H21.1V23.5437H24.0836V24.1938H21.1V25.6545H24.4354V26.3491Z" fill="white"/>
<path d="M26.9181 23.8686H28.6014C28.9576 23.8686 29.2115 23.7973 29.3718 23.6548C29.5321 23.5123 29.6122 23.2852 29.6122 22.9735C29.6122 22.6618 29.5321 22.4347 29.3718 22.2966C29.2115 22.1541 28.9532 22.0829 28.6014 22.0829H26.9181V23.8686ZM26.1833 26.3445V21.3882H28.6459C29.2426 21.3882 29.6746 21.5129 29.9418 21.7622C30.209 22.0116 30.347 22.4169 30.347 22.9735C30.347 23.5301 30.2134 23.9354 29.9418 24.1847C29.6746 24.4341 29.2426 24.5588 28.6459 24.5588H26.9181V26.3445H26.1833Z" fill="white"/>
<path d="M33.7794 22.1541L32.6528 24.5989L34.906 24.59L33.7794 22.1541ZM31.8467 26.3445H31.063L33.3563 21.3882H34.198L36.4913 26.3445H35.712L35.2222 25.2847L32.3321 25.2936L31.8423 26.349L31.8467 26.3445Z" fill="white"/>
<path d="M37.6826 26.3491V25.6144H37.9364C38.0745 25.6144 38.1814 25.5609 38.2571 25.4496C38.3372 25.3427 38.4085 25.08 38.4753 24.6703C38.5421 24.2606 38.5911 23.655 38.6311 22.8579L38.6935 21.3928H42.3985V26.3491H41.6637V22.0875H39.3926L39.357 22.9291C39.3125 23.8554 39.2457 24.559 39.1477 25.0444C39.0497 25.5298 38.9161 25.8682 38.7425 26.0597C38.5688 26.2512 38.3239 26.3447 38.0077 26.3447H37.6871L37.6826 26.3491Z" fill="white"/>
<path d="M46.7162 23.94H45.0329V25.6545H46.7162C47.068 25.6545 47.3263 25.5877 47.4866 25.4496C47.6469 25.3116 47.7271 25.0934 47.7271 24.7995C47.7271 24.4966 47.6469 24.2784 47.4866 24.1448C47.3263 24.0113 47.068 23.9445 46.7162 23.9445V23.94ZM44.2937 21.3928H45.0285V23.2453H46.7563C47.353 23.2453 47.7849 23.37 48.0521 23.6149C48.3193 23.8598 48.4574 24.2562 48.4574 24.7995C48.4574 25.3427 48.3238 25.7346 48.0521 25.984C47.7849 26.2289 47.353 26.3536 46.7563 26.3536H44.2937V21.3973V21.3928Z" fill="white"/>
<path d="M50.8217 26.3491H50.0869V21.3928H50.8217V23.5214H54.1838V21.3928H54.923V26.3491H54.1838V24.2161H50.8217V26.3491Z" fill="white"/>
<path d="M61.8147 21.3928H62.5495V26.3491H61.8147V21.3928ZM59.2452 23.94H57.562V25.6545H59.2452C59.597 25.6545 59.8553 25.5877 60.0156 25.4496C60.176 25.3116 60.2561 25.0934 60.2561 24.7995C60.2561 24.4966 60.176 24.2784 60.0156 24.1448C59.8553 24.0113 59.597 23.9445 59.2452 23.9445V23.94ZM56.8228 21.3928H57.5575V23.2498H59.2853C59.882 23.2498 60.314 23.3745 60.5812 23.6194C60.8484 23.8643 60.9864 24.2606 60.9864 24.8039C60.9864 25.3472 60.8528 25.7391 60.5812 25.9884C60.314 26.2334 59.882 26.358 59.2853 26.358H56.8228V21.4017V21.3928Z" fill="white"/>
<path d="M65.2043 19.6426H65.8545C65.8545 19.8742 65.9391 20.0657 66.1038 20.2215C66.2686 20.3774 66.5135 20.4531 66.8341 20.4531C67.1592 20.4531 67.4041 20.3774 67.5689 20.2215C67.7337 20.0701 67.8138 19.8742 67.8138 19.6382H68.464C68.464 20.0612 68.3304 20.3997 68.0677 20.649C67.8049 20.8984 67.3908 21.0187 66.8341 21.0187C66.2953 21.0187 65.8901 20.894 65.614 20.6446C65.3423 20.3952 65.2043 20.0612 65.2043 19.6382V19.6426ZM64.4473 21.3927H65.182V25.2803L68.4818 21.3927H69.2165V26.349H68.4818V22.4615L65.182 26.349H64.4473V21.3927Z" fill="white"/>
<path d="M74.9253 25.6543H77.6863V22.0873H75.4196L75.384 22.9156C75.3172 24.2872 75.1658 25.2045 74.9253 25.6543ZM74.1727 27.5379H73.438V25.6543H74.0748C74.1772 25.5919 74.2618 25.494 74.3242 25.3604C74.3865 25.2268 74.4488 24.9551 74.5112 24.5499C74.5735 24.1447 74.6181 23.588 74.6537 22.8844L74.7249 21.3882H78.421V25.6498H79.2582V27.5335H78.5234V26.3445H74.1772V27.5335L74.1727 27.5379Z" fill="white"/>
<path d="M84.9168 26.3491H80.8467V21.3928H84.9168V22.0831H81.5814V23.5437H84.565V24.1938H81.5814V25.6545H84.9168V26.3491Z" fill="white"/>
<path d="M87.3999 25.6545H89.5507C89.8535 25.6545 90.0717 25.5921 90.2142 25.4719C90.3523 25.3516 90.4235 25.1602 90.4235 24.893C90.4235 24.6347 90.3523 24.4432 90.2142 24.323C90.0762 24.2027 89.8535 24.1404 89.5507 24.1404H87.3999V25.65V25.6545ZM87.3999 23.4947H89.3592C89.6843 23.4947 89.9159 23.4368 90.0495 23.3299C90.1831 23.2186 90.2499 23.0405 90.2499 22.7866C90.2499 22.5417 90.1786 22.3636 90.0406 22.2523C89.9025 22.1409 89.6799 22.0875 89.377 22.0875H87.3954V23.4947H87.3999ZM86.6651 26.3491V21.3928H89.3859C89.9292 21.3928 90.3256 21.4952 90.5705 21.7045C90.8199 21.9138 90.9401 22.2389 90.9401 22.6887C90.9401 23.232 90.762 23.5971 90.4102 23.7841C90.8777 23.9578 91.1093 24.363 91.1093 24.9998C91.1093 25.4719 90.9891 25.8148 90.7397 26.0285C90.4948 26.2423 90.0985 26.3491 89.5507 26.3491H86.6606H86.6651Z" fill="white"/>
<path d="M96.8477 26.3491H92.7776V21.3928H96.8477V22.0831H93.5124V23.5437H96.4959V24.1938H93.5124V25.6545H96.8477V26.3491Z" fill="white"/>
<path d="M98.2051 26.3491V25.6144H98.4589C98.597 25.6144 98.7038 25.5609 98.7795 25.4496C98.8597 25.3427 98.9309 25.08 98.9977 24.6703C99.0645 24.2606 99.1135 23.655 99.1536 22.8579L99.2159 21.3928H102.921V26.3491H102.186V22.0875H99.9151L99.8794 22.9291C99.8349 23.8554 99.7681 24.559 99.6702 25.0444C99.5722 25.5298 99.4386 25.8682 99.2649 26.0597C99.0913 26.2512 98.8463 26.3447 98.5302 26.3447H98.2095L98.2051 26.3491Z" fill="white"/>
<path d="M105.788 22.4659C105.503 22.7554 105.36 23.223 105.36 23.8731C105.36 24.5188 105.503 24.9864 105.788 25.2803C106.073 25.5698 106.531 25.7167 107.159 25.7167C107.787 25.7167 108.246 25.5698 108.531 25.2803C108.816 24.9908 108.958 24.5233 108.958 23.8731C108.958 23.2274 108.816 22.7598 108.531 22.4659C108.246 22.1765 107.787 22.0295 107.159 22.0295C106.531 22.0295 106.073 22.1765 105.788 22.4659ZM105.226 21.936C105.627 21.5352 106.273 21.3348 107.159 21.3348C108.045 21.3348 108.691 21.5352 109.092 21.936C109.492 22.3368 109.693 22.9825 109.693 23.8687C109.693 24.7548 109.492 25.4005 109.092 25.8013C108.691 26.2021 108.045 26.4025 107.159 26.4025C106.273 26.4025 105.627 26.2021 105.226 25.8013C104.826 25.4005 104.625 24.7548 104.625 23.8687C104.625 22.9825 104.826 22.3368 105.226 21.936Z" fill="white"/>
<path d="M111.39 26.3491V21.3928H116.12V26.3491H115.385V22.0831H112.125V26.3491H111.39Z" fill="white"/>
<path d="M122.088 26.3491H118.018V21.3928H122.088V22.0831H118.753V23.5437H121.737V24.1938H118.753V25.6545H122.088V26.3491Z" fill="white"/>
<path d="M124.571 23.8686H126.254C126.606 23.8686 126.865 23.7973 127.025 23.6548C127.185 23.5123 127.265 23.2852 127.265 22.9735C127.265 22.6618 127.185 22.4347 127.025 22.2966C126.865 22.1541 126.606 22.0829 126.254 22.0829H124.571V23.8686ZM123.836 26.3445V21.3882H126.299C126.896 21.3882 127.323 21.5129 127.595 21.7622C127.862 22.0116 128 22.4169 128 22.9735C128 23.5301 127.866 23.9354 127.595 24.1847C127.328 24.4341 126.896 24.5588 126.299 24.5588H124.571V26.3445H123.836Z" fill="white"/>
<path d="M12.5015 13.9738V0.391846H9.05037V5.50847H3.55077V0.391846H0.0996094V13.9738H3.55077V8.66128H9.05037V13.9738H12.5015Z" fill="white"/>
<path d="M25.2549 3.5491V0.391846H14.8213V13.9738H25.2549V10.8166H18.2725V8.56331H23.8789V5.80238H18.2725V3.5491H25.2549Z" fill="white"/>
<path d="M70.7984 3.5491V0.391846H60.3647V13.9738H70.7984V10.8166H63.8159V8.56331H69.4224V5.80238H63.8159V3.5491H70.7984Z" fill="white"/>
<path d="M84.8228 0.391846H72.7192V3.5491H77.0477V13.9738H80.4988V3.5491H84.8228V0.391846Z" fill="white"/>
<path d="M36.6371 11.0571L36.557 11.0704C35.4793 11.2218 31.3602 11.2218 30.2825 11.0704L30.2024 11.0571V3.31312L30.2825 3.29976C31.3958 3.1439 35.4437 3.1439 36.557 3.29976L36.6371 3.31312V11.0571ZM38.6544 1.61203C37.4966 0.182578 35.2477 0 33.422 0C31.5917 0 29.3474 0.182578 28.1896 1.61203C26.8269 3.03702 26.8269 5.83803 26.8269 7.18287C26.8269 9.23131 26.9872 11.4979 28.1806 12.7448C29.3563 14.1965 31.7342 14.3657 33.422 14.3657C35.2522 14.3657 37.4966 14.1832 38.6544 12.7537C39.8523 11.4979 40.0126 9.23576 40.0126 7.18287C40.0126 5.83803 40.0126 3.03702 38.6588 1.62093L38.6544 1.61648V1.61203Z" fill="white"/>
<path d="M90.2532 3.54929C91.1884 3.45132 94.5906 3.45132 95.4545 3.54929V7.08061C94.5238 7.17412 91.1795 7.16076 90.2532 7.08061V3.54929ZM97.966 9.05779C98.6563 8.27404 99.0036 7.01381 99.0036 5.31717C99.0036 3.62054 98.6563 2.36031 97.966 1.57656C97.2802 0.792812 96.1581 0.396484 94.6262 0.396484H86.7976V13.9785H90.2488V10.2423H94.6262C96.1581 10.2423 97.2802 9.84599 97.966 9.06224V9.05779Z" fill="white"/>
<path d="M53.0689 0.391846L50.161 7.4723H50.0898L47.1819 0.391846H42.2256V13.9738H45.6767V6.19871L45.6233 4.3284H45.7302L48.3887 10.8255H51.8621L54.5206 4.3284H54.6275L54.5741 6.20316V13.9738H58.0252V0.391846H53.0689Z" fill="white"/>
<path d="M109.498 0.391846L104.386 9.1155H104.319L104.435 7.08042V0.391846H100.983V13.9738H105.062L110.175 5.25465H110.241L110.126 7.28527V13.9738H113.577V0.391846H109.498Z" fill="white"/>
<path d="M124.449 6.70655C123.492 6.79561 120.05 6.7867 119.097 6.70655V3.54038C120.059 3.44241 123.559 3.44241 124.449 3.54038V6.70655ZM119.894 0.396484C118.429 0.396484 117.351 0.774999 116.696 1.52758C116.051 2.26679 115.717 3.44687 115.703 5.03663L115.699 5.08116C115.699 5.09452 115.699 5.10788 115.699 5.12124C115.699 5.21475 115.703 5.30827 115.708 5.39733C115.748 6.88467 116.077 7.9935 116.692 8.69709C117.035 9.08896 117.507 9.38732 118.09 9.57435L118.202 9.60998L118.144 9.7124L115.668 13.9785H119.386L121.746 9.85045H124.449V13.9785H127.9V0.400937H119.889L119.894 0.396484Z" fill="white"/>
</svg>
