<svg width="44" height="44" viewBox="0 0 44 44" fill="none" xmlns="http://www.w3.org/2000/svg">
<g clip-path="url(#clip0_1_53)">
<path d="M37.4027 6.39657C35.3855 4.36068 32.9833 2.74662 30.3361 1.64844C27.6888 0.550256 24.8495 -0.0100828 21.9835 7.46238e-05C9.97425 7.46238e-05 0.187 9.78457 0.176 21.7966C0.176 25.6438 1.1825 29.3866 3.08275 32.7003L0 44.0001L11.561 40.9696C14.7593 42.7101 18.3423 43.6224 21.9835 43.6233H21.9945C34.0065 43.6233 43.791 33.8388 43.802 21.8158C43.8047 18.9504 43.2405 16.1128 42.1417 13.4665C41.043 10.8201 39.4315 8.41736 37.4 6.39657H37.4027ZM21.9835 39.9328C18.7357 39.9339 15.5477 39.06 12.7545 37.4028L12.0945 37.0068L5.236 38.8053L7.0675 32.1146L6.6385 31.4243C4.82297 28.5377 3.86278 25.1956 3.86925 21.7856C3.86925 11.8141 12.001 3.67957 21.9945 3.67957C24.3753 3.6753 26.7334 4.14233 28.9328 5.05373C31.1322 5.96512 33.1295 7.30286 34.8095 8.98982C36.4953 10.6702 37.8318 12.6677 38.7418 14.8672C39.6518 17.0667 40.1173 19.4245 40.1115 21.8048C40.1005 31.8121 31.9687 39.9328 21.9835 39.9328V39.9328ZM31.9247 26.3643C31.383 26.0921 28.7072 24.7748 28.204 24.5878C27.7035 24.4091 27.3377 24.3156 26.9802 24.8601C26.6145 25.4018 25.5695 26.6366 25.256 26.9913C24.9425 27.3571 24.618 27.3983 24.0735 27.1288C23.5317 26.8538 21.7745 26.2818 19.6955 24.4201C18.073 22.9763 16.9867 21.1888 16.6622 20.6471C16.3487 20.1026 16.632 19.8111 16.9042 19.5388C17.1435 19.2968 17.446 18.9008 17.7182 18.5873C17.9932 18.2738 18.084 18.0428 18.2627 17.6798C18.4415 17.3113 18.3562 16.9978 18.2215 16.7256C18.084 16.4533 16.9977 13.7666 16.5385 12.6831C16.0985 11.6133 15.6502 11.7618 15.3147 11.7481C15.0012 11.7288 14.6355 11.7288 14.2697 11.7288C13.9935 11.7357 13.7217 11.7996 13.4714 11.9165C13.2211 12.0333 12.9976 12.2007 12.815 12.4081C12.3145 12.9526 10.9147 14.2698 10.9147 16.9566C10.9147 19.6433 12.8672 22.2256 13.1422 22.5913C13.4117 22.9571 16.9757 28.4543 22.4455 30.8193C23.738 31.3831 24.7555 31.7158 25.5502 31.9688C26.8565 32.3868 28.0362 32.3236 28.9767 32.1888C30.0217 32.0293 32.197 30.8688 32.6562 29.5956C33.1072 28.3196 33.1072 27.2306 32.9697 27.0023C32.835 26.7713 32.4692 26.6366 31.9247 26.3643V26.3643Z" fill="white" fill-opacity="0.85"/>
</g>
<defs>
<clipPath id="clip0_1_53">
<rect width="44" height="44" fill="white"/>
</clipPath>
</defs>
</svg>
